# xmcd
#
# Track frame offsets:
#	150
#	14921
#	28667
#	53843
#	66803
#	76883
#	109837
#	131232
#
# Disc length: 2000 seconds
#
# Revision: 0
# Processed by: cddbd v1.4PL0 Copyright (c) Steve Scherf et al.
# Submitted via: dBpowerAMP V4.0
#
DISCID=6d07ce08
DTITLE=Val Tomato - Blues harmonica
DYEAR=2002
DGENRE=Blues
TTITLE0=Gêmeas Blues
TTITLE1=Senhores da lei
TTITLE2=Homenahem a Charlie Musselwhite
TTITLE3=À cidade
TTITLE4=Calados
TTITLE5=Robôs Humanos
TTITLE6=I Walk
TTITLE7=Bossa Blues
EXTD=
EXTT0=
EXTT1=
EXTT2=
EXTT3=
EXTT4=
EXTT5=
EXTT6=
EXTT7=
PLAYORDER=
